<?xml version="1.0" standalone="no"?>
<!DOCTYPE svg PUBLIC "-//W3C//DTD SVG 20010904//EN"
 "http://www.w3.org/TR/2001/REC-SVG-20010904/DTD/svg10.dtd">
<svg version="1.0" xmlns="http://www.w3.org/2000/svg"
 width="32px" height="32px" viewBox="0 0 911 1"
 preserveAspectRatio="xMidYMid meet">

<g transform="translate(0.000000,500.000000) scale(0.100000,-0.100000)"
fill="#000000" stroke="none">
<path d="M190 2510 l0 -1170 464 0 465 0 3 453 c2 344 6 457 16 474 14 25 61
53 88 53 34 0 87 -78 364 -527 l285 -463 533 0 c424 0 532 3 526 13 -4 6 -201
302 -437 656 -373 560 -428 647 -418 663 10 16 293 378 638 818 54 69 111 142
127 163 l28 37 -514 0 -514 0 -354 -490 c-195 -269 -358 -490 -362 -490 -4 0
-8 221 -8 490 l0 490 -465 0 -465 0 0 -1170z"/>
<path d="M3040 3598 c15 -46 202 -573 414 -1172 212 -598 386 -1090 386 -1092
0 -2 238 -4 529 -4 l529 0 10 28 c5 15 188 509 407 1097 218 589 410 1105 426
1148 l28 77 -473 0 -473 0 -202 -647 c-112 -357 -206 -651 -210 -656 -4 -4
-99 287 -211 648 l-204 655 -492 0 -493 0 29 -82z"/>
<path d="M6060 2505 l0 -1175 465 0 464 0 3 466 3 466 28 24 c40 35 91 33 125
-5 15 -16 155 -237 312 -490 l284 -461 529 0 c450 0 528 2 524 14 -3 8 -199
304 -435 658 l-430 645 360 459 c198 252 380 485 405 517 l44 57 -515 0 -514
0 -359 -496 -358 -495 -3 495 -2 496 -465 0 -465 0 0 -1175z"/>
</g>
</svg>
